<?xml version="1.0" encoding="utf-8" standalone="yes"?>
<?xml-stylesheet href="daySvgStyle.css" type="text/css"?>
<svg xmlns="http://www.w3.org/2000/svg" version="1.2" baseProfile="tiny" xml:space="preserve" style="shape-rendering:geometricPrecision; fill-rule:evenodd;" width="15.42mm" height="12.67mm" viewBox="-9.95 -7.2 15.42 12.67">
  <title>CHNGPC02</title>
  <desc>PC - Proposed change to an established Aid to Navigation or the establishment of a new Aid to Navigation.</desc>
  <metadata>
    <S100SVG xmlns:iho="http://www.iho.int/SVGMetadata">
      <Description publisher="IHB" creationDate="2022-10-25" source="S52Preslib4.0" format="S100SVG" version="0.1" />
    </S100SVG>
  </metadata>
  <rect class="symbolBox layout" fill="none" x="-9.95" y="5.47" height="12.67" width="15.42" />
  <rect class="svgBox layout" fill="none" x="-9.95" y="-7.2" height="12.67" width="15.42" />
  <path d=" M -4.17,-6.17 L -4.46,-6.45 L -4.94,-6.69 L -5.46,-6.69 L -6,-6.45 L -6.24,-6.17 L -6.48,-5.61 L -6.48,-5.08 L -6.24,-4.52 L -6,-4.24 L -5.46,-4 L -4.94,-4 L -4.46,-4.24 L -4.17,-4.52" class="sl f0 sCHRED" style="stroke-width:0.32;" />
  <circle cx="0.01" cy="0.01" r="4.96" class="sl f0 sCHRED" style="stroke-width:0.32" />
  <path d=" M -9.45,-6.64 L -8.26,-6.64 L -7.46,-6.44 L -7.06,-6.04 L -7.06,-5.6 L -7.46,-5.2 L -8.26,-5 L -9.45,-5" class="sl f0 sCHRED" style="stroke-width:0.32;" />
  <path d=" M -9.45,-6.64 L -9.45,-3.9" class="sl f0 sCHRED" style="stroke-width:0.32;" />
</svg>