<?xml version="1.0" encoding="utf-8" standalone="yes"?>
<?xml-stylesheet href="daySvgStyle.css" type="text/css"?>
<svg xmlns="http://www.w3.org/2000/svg" version="1.2" baseProfile="tiny" xml:space="preserve" style="shape-rendering:geometricPrecision; fill-rule:evenodd;" width="14.57mm" height="12.77mm" viewBox="-9.1 -7.3 14.57 12.77">
  <title>CHNGDC02</title>
  <desc>DC - A difference between results of duplicate or comparable measures of a quantity or the difference in computed values of a quantity obtained by different processes using data from the same survey.</desc>
  <metadata>
    <S100SVG xmlns:iho="http://www.iho.int/SVGMetadata">
      <Description publisher="IHB" creationDate="10/24/2022" source="S52Preslib4.0" format="S100SVG" version="0.1" />
    </S100SVG>
  </metadata>
  <rect class="symbolBox layout" fill="none" x="-9.1" y="5.47" height="12.77" width="14.57" />
  <rect class="svgBox layout" fill="none" x="-9.1" y="-7.3" height="12.77" width="14.57" />
  <path d=" M -3.64,-6.23 L -3.92,-6.51 L -4.4,-6.75 L -4.92,-6.75 L -5.46,-6.51 L -5.7,-6.23 L -5.94,-5.67 L -5.94,-5.14 L -5.7,-4.58 L -5.46,-4.3 L -4.92,-3.98 L -4.4,-3.98 L -3.92,-4.3 L -3.64,-4.58" class="sl f0 sCHRED" style="stroke-width:0.32;" />
  <circle cx="0.01" cy="0.01" r="4.96" class="sl f0 sCHRED" style="stroke-width:0.32" />
  <path d=" M -8.6,-6.8 L -8.6,-4 L -7.4,-4 L -6.8,-4.1 L -6.5,-4.3 L -6.3,-4.8 L -6.3,-6.3 L -6.6,-6.6 L -7.1,-6.8 L -7.5,-6.8 L -8.6,-6.8" class="sl f0 sCHRED" style="stroke-width:0.32;" />
</svg>