<?xml version="1.0" encoding="UTF-8"?>
<?xml-stylesheet type='text/css' href='daySvgStyle.css'?>
<svg xmlns="http://www.w3.org/2000/svg" version="1.2" baseProfile="tiny" xml:space="preserve" style="shape-rendering:geometricPrecision; fill-rule:evenodd;" width="7.00mm" height="7.00mm" viewBox="-3.51 -3.51 7.02 7.02">
  <title>NMKAC106G</title>
  <desc>cross river to port, right bank</desc>
  <metadata><iho:S100SVG xmlns:iho="http://www.iho.int/SVGMetadata/5.2"><iho:Description iho:publisher="IHB" iho:creationDate="2014-06-09" iho:source="S52Preslib4.0" iho:format="S100SVG" iho:version="0.1"/></iho:S100SVG></metadata>
  
    <path class="fWHITE sBLACK" d="M -3.50,-3.50 L 3.50,-3.50 L 3.50,3.50 L -3.50,3.50 L -3.50,-3.50 Z" stroke-width="0.12" />
    <path class="fDRKGN sDRKGN" d="M -3.50,3.50 L -2.90,3.50 L -2.90,-3.50 L -3.50,-3.50 L -3.50,3.50 Z" stroke-width="0.04" />
    <path class="fDRKGN sDRKGN" d="M 3.50,3.50 L 2.90,3.50 L 2.90,-3.50 L 3.50,-3.50 L 3.50,3.50 Z" stroke-width="0.04" />
    <path class="fDRKGN sDRKGN" d="M -1.34,-0.92 L -0.94,-0.92 L -1.64,-2.17 L -2.34,-0.92 L -1.94,-0.92 L -1.94,-0.69 L -1.86,-0.48 L -1.78,-0.30 L -1.63,-0.12 L -1.43,0.06 L -1.12,0.24 L -0.81,0.37 L -0.50,0.43 L -0.10,0.49 L 0.19,0.51 L 0.43,0.54 L 0.58,0.57 L 0.75,0.68 L 0.95,0.91 L 1.14,1.22 L 1.26,1.51 L 1.30,1.86 L 1.30,2.35 L 1.90,2.35 L 1.90,2.00 L 1.90,1.65 L 1.85,1.40 L 1.76,1.16 L 1.62,0.85 L 1.48,0.62 L 1.34,0.46 L 1.17,0.30 L 0.97,0.16 L 0.76,0.08 L 0.44,0.02 L -0.02,-0.02 L -0.44,-0.06 L -0.72,-0.15 L -0.97,-0.27 L -1.14,-0.39 L -1.27,-0.52 L -1.34,-0.71 L -1.34,-0.92 Z" stroke-width="0.04" />
    <circle class="pivotPoint layout" fill="none" cx="0" cy="0" r="0.2" />
  
</svg>