<?xml version="1.0" encoding="UTF-8"?>
<?xml-stylesheet type='text/css' href='daySvgStyle.css'?>
<svg xmlns="http://www.w3.org/2000/svg" version="1.2" baseProfile="tiny" xml:space="preserve" style="shape-rendering:geometricPrecision; fill-rule:evenodd;" width="7.00mm" height="7.00mm" viewBox="-3.51 -3.51 7.02 7.02">
  <title>NMKAC008G</title>
  <desc>no anchoring or trailing of anchors, cables or
chains, right bank</desc>
  <metadata><iho:S100SVG xmlns:iho="http://www.iho.int/SVGMetadata/5.2"><iho:Description iho:publisher="IHB" iho:creationDate="2014-06-09" iho:source="S52Preslib4.0" iho:format="S100SVG" iho:version="0.1"/></iho:S100SVG></metadata>
  
    <path class="f0 sWHITE" d="M 0.00,0.00 L 0.00,0.00 " stroke-width="0.04" />
    <path class="f0 sWHITE" d="M -3.50,-3.50 L 3.46,2.94 " stroke-width="0.04" />
    <path class="fWHITE sBLACK" d="M -3.50,-3.50 L 3.50,-3.50 L 3.50,3.50 L -3.50,3.50 L -3.50,-3.50 Z" stroke-width="0.12" />
    <path class="fDRKGN sDRKGN" d="M -0.33,-1.30 L -0.89,-1.30 L -0.89,-0.79 L -0.33,-0.79 L -0.33,1.94 L -0.49,1.94 L -1.34,1.29 L -1.84,0.76 L -1.46,0.50 L -2.59,0.02 L -2.59,1.22 L -2.23,0.99 L -1.33,1.94 L -0.80,2.37 L -0.49,2.51 L -0.01,2.99 L 0.52,2.51 L 0.84,2.37 L 1.38,1.97 L 2.35,0.93 L 2.74,1.22 L 2.74,0.02 L 1.67,0.42 L 1.99,0.67 L 1.07,1.57 L 0.53,1.94 L 0.32,1.94 L 0.32,-0.76 L 1.07,-0.76 L 1.07,-1.30 L 0.32,-1.30 L 0.32,-2.06 L -0.33,-2.06 L -0.33,-1.30 Z" stroke-width="0.04" />
    <circle cx="0.00" cy="-2.44" r="0.38" class="fDRKGN sDRKGN" stroke-width="0.04" />
    <path class="fDRKGN sDRKGN" d="M -3.50,-3.50 L -2.96,-3.50 L 3.50,2.96 L 3.50,3.50 L 2.96,3.50 L -3.50,-2.96 L -3.50,-3.50 Z" stroke-width="0.04" />
    <circle class="pivotPoint layout" fill="none" cx="0" cy="0" r="0.2" />
  
</svg>