<?xml version="1.0" encoding="UTF-8"?>
<?xml-stylesheet type='text/css' href='daySvgStyle.css'?>
<svg xmlns="http://www.w3.org/2000/svg" version="1.2" baseProfile="tiny" xml:space="preserve" style="shape-rendering:geometricPrecision; fill-rule:evenodd;" width="7.03mm" height="7.03mm" viewBox="-3.51 -3.51 7.05 7.05">
  <title>NMKINF42</title>
  <desc>sport and pleasure craft permitted (E.16)</desc>
  <metadata><iho:S100SVG xmlns:iho="http://www.iho.int/SVGMetadata/5.2"><iho:Description iho:publisher="IHB" iho:creationDate="2014-06-09" iho:source="S52Preslib4.0" iho:format="S100SVG" iho:version="0.1"/></iho:S100SVG></metadata>
  
    <path class="fAZUBL sAZUBL" d="M -3.47,3.53 L -3.50,-3.50 L 3.50,-3.50 L 3.53,3.53 L -3.47,3.53 Z" stroke-width="0.04" />
    <path class="f0 sBLACK" d="M -3.50,3.50 L -3.50,-3.50 L 3.50,-3.50 L 3.50,3.50 L -3.50,3.50 " stroke-width="0.12" />
    <path class="fWHITE sWHITE" d="M -1.36,0.76 L -1.36,-0.75 L -0.85,-0.75 L -0.77,-0.72 L -0.68,-0.65 L -0.63,-0.55 L -0.59,-0.43 L -0.59,-0.26 L -0.61,-0.12 L -0.65,-0.03 L -0.68,0.03 L -0.72,0.07 L -0.77,0.11 L -0.86,0.13 L -0.92,0.15 L -1.22,0.14 L -1.22,-0.04 L -0.92,-0.04 L -0.81,-0.07 L -0.76,-0.14 L -0.73,-0.25 L -0.73,-0.37 L -0.76,-0.47 L -0.80,-0.52 L -0.83,-0.56 L -0.93,-0.57 L -1.22,-0.57 L -1.22,0.75 L -1.36,0.76 Z" stroke-width="0.04" />
    <path class="fWHITE sWHITE" d="M -1.56,-0.33 L -1.57,-0.46 L -1.61,-0.55 L -1.64,-0.62 L -1.68,-0.68 L -1.76,-0.73 L -1.84,-0.77 L -1.90,-0.78 L -1.96,-0.78 L -2.02,-0.77 L -2.08,-0.75 L -2.15,-0.71 L -2.20,-0.66 L -2.23,-0.63 L -2.26,-0.54 L -2.29,-0.46 L -2.30,-0.37 L -2.29,-0.28 L -2.26,-0.18 L -2.23,-0.11 L -2.17,-0.04 L -2.07,0.01 L -1.99,0.06 L -1.84,0.11 L -1.75,0.16 L -1.69,0.21 L -1.66,0.31 L -1.67,0.38 L -1.69,0.46 L -1.73,0.53 L -1.81,0.58 L -1.88,0.60 L -1.92,0.60 L -1.99,0.59 L -2.05,0.56 L -2.10,0.53 L -2.15,0.46 L -2.18,0.40 L -2.20,0.34 L -2.20,0.25 L -2.33,0.27 L -2.33,0.36 L -2.30,0.45 L -2.29,0.52 L -2.26,0.60 L -2.20,0.67 L -2.08,0.75 L -1.98,0.78 L -1.89,0.78 L -1.79,0.76 L -1.71,0.72 L -1.63,0.66 L -1.56,0.53 L -1.53,0.43 L -1.53,0.30 L -1.54,0.19 L -1.58,0.11 L -1.62,0.03 L -1.67,-0.02 L -1.72,-0.06 L -2.05,-0.19 L -2.11,-0.23 L -2.16,-0.33 L -2.15,-0.43 L -2.11,-0.53 L -2.03,-0.59 L -1.94,-0.60 L -1.85,-0.59 L -1.78,-0.55 L -1.74,-0.49 L -1.71,-0.41 L -1.71,-0.30 L -1.56,-0.33 Z" stroke-width="0.04" />
    <path class="fWHITE sWHITE" d="M 0.01,-0.78 L 0.09,-0.77 L 0.15,-0.75 L 0.23,-0.71 L 0.31,-0.64 L 0.38,-0.53 L 0.41,-0.47 L 0.46,-0.35 L 0.49,-0.16 L 0.50,-0.01 L 0.49,0.10 L 0.48,0.25 L 0.45,0.38 L 0.42,0.48 L 0.35,0.60 L 0.29,0.66 L 0.23,0.71 L 0.12,0.76 L 0.02,0.78 L -0.06,0.77 L -0.15,0.74 L -0.25,0.67 L -0.32,0.57 L -0.38,0.46 L -0.42,0.36 L -0.44,0.26 L -0.46,0.16 L -0.47,0.03 L -0.46,-0.12 L -0.44,-0.26 L -0.41,-0.40 L -0.35,-0.54 L -0.28,-0.63 L -0.20,-0.71 L -0.10,-0.76 L 0.01,-0.78 L 0.01,-0.60 L -0.06,-0.59 L -0.14,-0.54 L -0.20,-0.49 L -0.25,-0.40 L -0.29,-0.29 L -0.32,-0.16 L -0.33,-0.01 L -0.32,0.11 L -0.30,0.23 L -0.28,0.34 L -0.22,0.45 L -0.18,0.51 L -0.07,0.59 L 0.05,0.61 L 0.16,0.57 L 0.25,0.48 L 0.31,0.35 L 0.35,0.18 L 0.36,-0.05 L 0.35,-0.22 L 0.30,-0.37 L 0.26,-0.46 L 0.19,-0.54 L 0.11,-0.59 L 0.01,-0.60 L 0.01,-0.78 Z" stroke-width="0.04" />
    <path class="fWHITE sWHITE" d="M 1.60,-0.57 L 1.59,-0.75 L 2.40,-0.75 L 2.40,-0.57 L 2.08,-0.57 L 2.07,0.75 L 1.92,0.75 L 1.92,-0.57 L 1.60,-0.57 Z" stroke-width="0.04" />
    <path class="fWHITE sWHITE" d="M 0.67,0.76 L 0.66,-0.75 L 1.20,-0.75 L 1.31,-0.72 L 1.39,-0.65 L 1.44,-0.56 L 1.46,-0.47 L 1.47,-0.38 L 1.48,-0.31 L 1.47,-0.25 L 1.44,-0.15 L 1.41,-0.08 L 1.36,-0.02 L 1.31,0.02 L 1.28,0.04 L 1.20,0.07 L 1.24,0.11 L 1.31,0.20 L 1.37,0.33 L 1.55,0.75 L 1.38,0.75 L 1.17,0.26 L 1.12,0.18 L 1.08,0.12 L 1.02,0.09 L 0.81,0.09 L 0.81,-0.10 L 1.10,-0.09 L 1.21,-0.11 L 1.27,-0.15 L 1.32,-0.25 L 1.33,-0.36 L 1.31,-0.45 L 1.27,-0.52 L 1.23,-0.55 L 1.17,-0.58 L 1.13,-0.58 L 0.81,-0.58 L 0.81,0.76 L 0.67,0.76 Z" stroke-width="0.04" />
    <circle class="pivotPoint layout" fill="none" cx="0" cy="0" r="0.2" />
  
</svg>