<?xml version="1.0" encoding="UTF-8"?>
<?xml-stylesheet type='text/css' href='daySvgStyle.css'?>
<svg xmlns="http://www.w3.org/2000/svg" version="1.2" baseProfile="tiny" xml:space="preserve" style="shape-rendering:geometricPrecision; fill-rule:evenodd;" width="7.20mm" height="7.20mm" viewBox="-3.61 -3.61 7.22 7.22">
  <title>NMKIN101</title>
  <desc>turning area (3.2)</desc>
  <metadata><iho:S100SVG xmlns:iho="http://www.iho.int/SVGMetadata/5.2"><iho:Description iho:publisher="IHB" iho:creationDate="2014-06-09" iho:source="S52Preslib4.0" iho:format="S100SVG" iho:version="0.1"/></iho:S100SVG></metadata>
  
    <path class="fWHITE sWHITE" d="M 0.00,3.60 L -3.60,0.00 L 0.00,-3.60 L 3.60,0.00 L 0.00,3.60 Z" stroke-width="0.12" />
    <path class="fWHITE sBLACK" d="M -3.60,0.00 L 0.00,-3.60 L 3.60,0.00 L 0.00,3.60 L -3.60,0.00 Z" stroke-width="0.12" />
    <path class="fBLACK sBLACK" d="M 1.40,-0.74 L 1.35,-0.84 L 1.29,-0.93 L 1.22,-1.02 L 1.15,-1.10 L 1.07,-1.18 L 0.99,-1.25 L 0.90,-1.32 L 0.81,-1.38 L 0.71,-1.43 L 0.61,-1.48 L 0.51,-1.52 L 0.40,-1.55 L 0.29,-1.58 L 0.18,-1.60 L 0.07,-1.61 L -0.04,-1.61 L -0.15,-1.61 L -0.26,-1.60 L -0.37,-1.58 L -0.47,-1.55 L -0.58,-1.52 L -0.68,-1.48 L -0.78,-1.43 L -0.88,-1.38 L -0.97,-1.32 L -1.06,-1.25 L -1.14,-1.18 L -1.22,-1.10 L -1.29,-1.01 L -1.36,-0.93 L -1.42,-0.83 L -1.47,-0.74 L -1.52,-0.64 L -1.56,-0.53 L -1.59,-0.43 L -1.62,-0.32 L -1.64,-0.21 L -1.65,-0.10 L -1.65,0.01 L -1.64,0.12 L -1.63,0.23 L -1.61,0.34 L -1.59,0.45 L -1.55,0.55 L -1.51,0.65 L -1.46,0.75 L -1.41,0.85 L -1.35,0.94 L -1.28,1.03 L -1.21,1.11 L -1.13,1.19 L -1.04,1.26 L -0.95,1.33 L -0.86,1.39 L -0.76,1.44 L -0.66,1.49 L -0.56,1.53 L -0.45,1.56 L -0.35,1.58 L -0.24,1.60 L -0.13,1.61 L -0.02,1.62 L -0.02,1.29 L -0.12,1.29 L -0.23,1.28 L -0.33,1.26 L -0.43,1.23 L -0.53,1.20 L -0.62,1.16 L -0.71,1.11 L -0.80,1.05 L -0.88,0.98 L -0.95,0.91 L -1.03,0.84 L -1.09,0.76 L -1.15,0.67 L -1.20,0.58 L -1.24,0.49 L -1.28,0.39 L -1.30,0.29 L -1.32,0.19 L -1.33,0.08 L -1.34,-0.02 L -1.33,-0.12 L -1.32,-0.23 L -1.30,-0.33 L -1.27,-0.43 L -1.23,-0.52 L -1.18,-0.62 L -1.13,-0.71 L -1.07,-0.79 L -1.00,-0.87 L -0.93,-0.95 L -0.85,-1.01 L -0.77,-1.08 L -0.68,-1.13 L -0.59,-1.18 L -0.50,-1.22 L -0.40,-1.25 L -0.30,-1.28 L -0.19,-1.29 L -0.09,-1.30 L 0.01,-1.30 L 0.12,-1.29 L 0.22,-1.28 L 0.32,-1.25 L 0.42,-1.22 L 0.51,-1.18 L 0.60,-1.13 L 0.69,-1.08 L 0.78,-1.01 L 0.85,-0.95 L 0.93,-0.87 L 0.99,-0.79 L 1.05,-0.71 L 1.10,-0.62 L 0.65,-0.47 L 1.58,0.16 L 1.82,-0.96 L 1.40,-0.74 Z" stroke-width="0.04" />
    <circle class="pivotPoint layout" fill="none" cx="0" cy="0" r="0.2" />
  
</svg>