<?xml version="1.0" encoding="UTF-8"?>
<?xml-stylesheet type='text/css' href='daySvgStyle.css'?>
<svg xmlns="http://www.w3.org/2000/svg" version="1.2" baseProfile="tiny" xml:space="preserve" style="shape-rendering:geometricPrecision; fill-rule:evenodd;" width="10.20mm" height="7.00mm" viewBox="-5.11 -3.51 10.22 7.02">
  <title>NMKINF03</title>
  <desc>weir (E.3)</desc>
  <metadata><iho:S100SVG xmlns:iho="http://www.iho.int/SVGMetadata/5.2"><iho:Description iho:publisher="IHB" iho:creationDate="2014-06-09" iho:source="S52Preslib4.0" iho:format="S100SVG" iho:version="0.1"/></iho:S100SVG></metadata>
  
    <path class="fAZUBL sBLACK" d="M 5.10,3.50 L -5.10,3.50 L -5.10,-3.50 L 5.10,-3.50 L 5.10,3.50 Z" stroke-width="0.12" />
    <path class="fWHITE sWHITE" d="M -4.42,2.12 L 4.51,2.12 L 4.51,-1.94 L 3.72,-1.94 L 3.72,-0.88 L -3.65,-0.88 L -3.65,-1.94 L -4.42,-1.94 L -4.42,2.12 Z" stroke-width="0.08" />
    <path class="fAZUBL sWHITE" d="M -3.65,1.68 L -2.81,1.68 L -2.81,-0.44 L -3.65,-0.44 L -3.65,1.68 Z" stroke-width="0.08" />
    <path class="fAZUBL sWHITE" d="M -2.01,1.68 L -1.17,1.68 L -1.17,-0.44 L -2.01,-0.44 L -2.01,1.68 Z" stroke-width="0.08" />
    <path class="fAZUBL sWHITE" d="M -0.37,1.68 L 0.47,1.68 L 0.47,-0.44 L -0.37,-0.44 L -0.37,1.68 Z" stroke-width="0.08" />
    <path class="fAZUBL sWHITE" d="M 1.26,1.68 L 2.09,1.68 L 2.09,-0.44 L 1.26,-0.44 L 1.26,1.68 Z" stroke-width="0.08" />
    <path class="fAZUBL sWHITE" d="M 2.90,1.68 L 3.74,1.68 L 3.74,-0.44 L 2.90,-0.44 L 2.90,1.68 Z" stroke-width="0.08" />
    <circle class="pivotPoint layout" fill="none" cx="0" cy="0" r="0.2" />
  
</svg>